<svg version="1" xmlns="http://www.w3.org/2000/svg" width="1320" height="1320" viewBox="0 0 990.000000 990.000000"><path d="M324 47.6c0 3.1 17.7 58.9 31.5 99.4 32 93.7 77.1 210.3 118 305 13.2 30.5 14.7 34.4 14.8 37.9.2 9.3-21.3 52.6-73.5 147.5-8.8 15.9-17.9 32.4-20.4 36.7-2.4 4.4-5.5 9.8-6.8 12.2-15.8 28.3-42.5 76.4-44.8 80.7-6.3 11.5-9.4 17-18.1 31.9-16.8 28.8-21.2 37.3-20.4 39.4.3.9 2.6 1.8 5.8 2.2 5 .7 5.4.6 7.6-2.1 3.9-4.9 11.8-20.1 24.6-46.9 6.8-14.4 14.2-29.2 16.4-33 4.4-7.5 6-10.4 14.6-26 3-5.5 9.4-17 14.2-25.5 4.8-8.5 10.1-18 11.8-21 1.6-3 5.3-9.8 8.2-15 2.9-5.2 7.4-13.6 10-18.5 6.2-11.6 9.8-18.2 15-27.5 2.3-4.1 6.1-11.1 8.5-15.5 2.3-4.4 5-9.4 6-11 2.4-4.2 13-24.6 24.5-47 5.3-10.5 10.6-20 11.8-21.3 2.1-2.2 7.9-4.4 10-3.7.7.2 3 .6 5.2.9 8.4 1 11 3 13.9 10.6 14.3 37.2 38.7 92.7 41.5 94.4.5.4 4 10 7.6 21.4 10.5 32.5 30.8 93.5 35.3 106.2 2.2 6.3 6.3 17.8 9 25.5 10.9 30.6 28.9 76 37.3 94.3 2.2 4.6 3.9 8.6 3.9 8.8 0 .2 3.4 7.2 7.5 15.7 6.3 13 7.5 16.3 7.9 21.9.7 8.3 1.7 10.8 5.5 14.1 5.4 4.5 14.7 5.8 13.4 1.9-.8-2.5-16.1-37.3-21.3-48.7-1-2.2-2.8-6.2-4-8.9-1.2-2.7-6.7-15-12.2-27.5-5.5-12.4-11.8-28-13.9-34.6C606.3 748.6 590.8 705 568 648c-5.4-13.5-22.7-54.9-26.5-63.5-.7-1.7-2.7-6.4-4.5-10.5-1.8-4.1-4.4-10-5.7-13-1.4-3-6.4-14.1-11-24.5-4.7-10.5-10.5-23.4-12.9-28.8-2.4-5.3-4.4-10.8-4.4-12.1 0-2 11.8-34.3 15-41.1.5-1.1 3.8-9.7 7.4-19 3.5-9.4 14.4-37 24.1-61.5 9.7-24.5 24.4-61.6 32.6-82.5 8.3-20.9 15.7-39.4 16.4-41 .7-1.7 4.5-10.9 8.3-20.5 21.1-52.7 35.8-88.8 47.4-116.5 13.9-33 19.8-47.9 19.8-49.9 0-.6-1.5-1.3-3.4-1.4l-3.3-.2-7.1 13.7c-17.5 34.4-47.9 108-79.3 192.1-9.3 25.1-17.4 46.6-17.9 47.7-.5 1.1-3 7.6-5.5 14.4-14.1 37.6-30.4 77.1-40.5 97.7-8.6 17.4-14.1 24.3-19.7 24.5-8.4.5-11.7-.5-14.1-4-1.6-2.3-30.6-72.8-40.7-99.1-5.6-14.6-16.2-40.9-27.8-69-25.6-62.1-34.6-85.9-42.2-111.1-22.6-75.1-40.2-121.8-46.4-122.7-1.4-.2-2.1.2-2.1 1.4z"/><path d="M493.5 114.7c-9.1 2.7-14.9 8.3-20.6 19.9-15.2 30.9-17.6 86.4-6.3 143.9.9 4.6.9 4.6 2.8 11 4 13.4 8.5 18.8 20.6 24.8 5.4 2.7 7.6 3.2 13.1 3.2 5.6-.1 7.8-.7 14.2-3.8 10.4-5.1 15.3-11.2 11-13.6-1.3-.7-3 .1-7.3 3.4-8 6.2-11.7 7.9-18 7.9-9.2 0-19.7-7-23.9-15.9-4.7-10.1-7.5-24.6-11.7-61-.9-7.8-.9-32.9 0-45 1.5-20.8 6.6-42.3 12.7-53.3 6.7-12 7.1-12.4 15.4-15.1 9.7-3.1 10.1-3.1 15.1 0 4.7 3.1 7.7 3.1 8.8.3.3-.9-.4-2.5-1.8-3.9-4.5-4.5-14.7-5.7-24.1-2.8zM318.5 368.6c-1.5 2.3-1.6 3.3-.5 6.6 1.4 4.8 2 39.8 2.5 133.3.1 37.4.3 68.5.4 69.1.1 1.3 3.7 2.5 5.5 1.8.9-.4 1.2-11.7 1.2-48.7l-.1-48.2 11.5-.1c17.2-.3 16.8-.2 18-2.5.7-1.1.9-2.4.5-2.7-.4-.4-7-.8-14.6-.8-7.7-.1-14.3-.5-14.6-.8-.4-.4-.8-9.1-.9-19.4-.1-10.3-.5-32.8-.7-49.9l-.5-31.3 3.1.5c1.8.3 4.3.7 5.7 1 1.4.2 5.2.7 8.5 1 3.3.3 7.9.8 10.2 1.1 4.8.7 8.3-.2 8.3-2 0-2.2-2.3-3.4-7.5-4-2.8-.3-6.3-.8-8-1.1-1.6-.3-5.8-.7-9.3-1-3.5-.3-8.1-1.4-10.2-2.5-5.1-2.6-6.4-2.5-8.5.6zM642.8 373.2c-6.3 2-9.8 3.7-9.8 4.6 0 .7-2.2 3.9-4.9 7-12.4 14.5-23.4 37.1-25.5 52.7-2.4 17.5-2.5 18.9-3.3 38.5-1.5 40.6-.9 54.3 3.2 68.5 4.9 16.7 13.6 27.1 25.9 30.6 11.9 3.4 25.5 1 32.2-5.9 6.4-6.4 14.4-26.3 18-44.6 1.2-6 4.4-26.9 4.9-32.1.4-3.3.8-7.1 1.1-8.5 2.2-13.8 2.2-57.4-.1-73.5-.2-1.6-.9-6.6-1.5-11-.8-6.3-1.8-9.3-4.9-14.5-9.3-15.5-16.3-17.9-35.3-11.8zm22.2 6.7c4.8 5.5 7.6 11.1 8.5 16.6 2 13.5 2.6 18 3.2 27 1.1 16.4.5 48.1-1.2 58.6-.2 1.3-.6 4.9-.9 7.9-5.2 46.7-15.5 75.4-29 80.5-15.8 6-31.5-8.4-36.1-33-1.9-10.2-2.4-40-1.2-71.4.6-14.6 1.2-20.4 3.2-28 8.4-32.9 26.5-59.6 42.8-63.1 4.7-1 6.3-.2 10.7 4.9zM455.9 653.4c0 .1-.2.8-.4 1.7-.7 3.9.9 4.3 13.8 4.1 9.5-.2 12.6 0 12.9 1 .3.7.4 6.2.2 12.3-.1 6-.5 38.7-.8 72.5-.7 63.5-1.2 83.9-2 87.7-.6 2.7 1.5 4.6 4.6 4.1 2-.3 2.3-.9 2.5-5.3.7-23.6 1.5-69.5 1.8-106 .5-58.1.6-62.7 1.6-64.7.7-1.4 1.9-1.6 7.1-1.1 3.5.3 11.8.6 18.5.7 12.5.1 15.2-.6 14-3.8-.5-1.3-2.8-1.6-13.4-1.7-7 0-15-.2-17.8-.4-4.5-.4-42.4-1.3-42.6-1.1z"/></svg>